HIERARCHY
ROOT Hips
{
	OFFSET 0.00000 0.00000 0.00000
	CHANNELS 6 Xposition Yposition Zposition Zrotation Yrotation Xrotation 
	JOINT LHipJoint
	{
		OFFSET 0 0 0
		CHANNELS 3 Zrotation Yrotation Xrotation
		JOINT LeftUpLeg
		{
			OFFSET 1.53139 -1.83434 0.76626
			CHANNELS 3 Zrotation Yrotation Xrotation
			JOINT LeftLeg
			{
				OFFSET 2.56112 -7.03663 0.00000
				CHANNELS 3 Zrotation Yrotation Xrotation
				JOINT LeftFoot
				{
					OFFSET 2.59983 -7.14299 0.00000
					CHANNELS 3 Zrotation Yrotation Xrotation
					JOINT LeftToeBase
					{
						OFFSET 0.13742 -0.37757 2.00054
						CHANNELS 3 Zrotation Yrotation Xrotation
						End Site
						{
							OFFSET 0.00000 -0.00000 1.02897
						}
					}
				}
			}
		}
	}
	JOINT RHipJoint
	{
		OFFSET 0 0 0
		CHANNELS 3 Zrotation Yrotation Xrotation
		JOINT RightUpLeg
		{
			OFFSET -1.40122 -1.83435 0.76627
			CHANNELS 3 Zrotation Yrotation Xrotation
			JOINT RightLeg
			{
				OFFSET -2.54052 -6.98003 0.00000
				CHANNELS 3 Zrotation Yrotation Xrotation
				JOINT RightFoot
				{
					OFFSET -2.63179 -7.23079 0.00000
					CHANNELS 3 Zrotation Yrotation Xrotation
					JOINT RightToeBase
					{
						OFFSET -0.24131 -0.66299 2.03908
						CHANNELS 3 Zrotation Yrotation Xrotation
						End Site
						{
							OFFSET -0.00000 -0.00000 1.07391
						}
					}
				}
			}
		}
	}
	JOINT LowerBack
	{
		OFFSET 0 0 0
		CHANNELS 3 Zrotation Yrotation Xrotation
		JOINT Spine
		{
			OFFSET 0.01174 2.10302 -0.29778
			CHANNELS 3 Zrotation Yrotation Xrotation
			JOINT Spine1
			{
				OFFSET 0.00772 2.13227 -0.01247
				CHANNELS 3 Zrotation Yrotation Xrotation
				JOINT Neck
				{
					OFFSET 0 0 0
					CHANNELS 3 Zrotation Yrotation Xrotation
					JOINT Neck1
					{
						OFFSET -0.09219 1.60848 0.31481
						CHANNELS 3 Zrotation Yrotation Xrotation
						JOINT Head
						{
							OFFSET 0.13974 1.65456 -0.31134
							CHANNELS 3 Zrotation Yrotation Xrotation
							End Site
							{
								OFFSET 0.04742 1.69515 -0.14578
							}
						}
					}
				}
				JOINT LeftShoulder
				{
					OFFSET 0 0 0
					CHANNELS 3 Zrotation Yrotation Xrotation
					JOINT LeftArm
					{
						OFFSET 3.24909 1.02882 -0.23993
						CHANNELS 3 Zrotation Yrotation Xrotation
						JOINT LeftForeArm
						{
							OFFSET 5.32955 -0.00000 -0.00000
							CHANNELS 3 Zrotation Yrotation Xrotation
							JOINT LeftHand
							{
								OFFSET 3.69232 -0.00000 -0.00000
								CHANNELS 3 Zrotation Yrotation Xrotation
								JOINT LeftFingerBase
								{
									OFFSET 0 0 0
									CHANNELS 3 Zrotation Yrotation Xrotation
									JOINT LeftHandIndex1
									{
										OFFSET 0.53660 -0.00000 -0.00000
										CHANNELS 3 Zrotation Yrotation Xrotation
										End Site
										{
											OFFSET 0.43262 -0.00000 -0.00000
										}
									}
								}
								JOINT LThumb
								{
									OFFSET 0 0 0
									CHANNELS 3 Zrotation Yrotation Xrotation
									End Site
									{
										OFFSET 0.43922 -0.00000 0.43922
									}
								}
							}
						}
					}
				}
				JOINT RightShoulder
				{
					OFFSET 0 0 0
					CHANNELS 3 Zrotation Yrotation Xrotation
					JOINT RightArm
					{
						OFFSET -3.21387 0.93002 -0.34594
						CHANNELS 3 Zrotation Yrotation Xrotation
						JOINT RightForeArm
						{
							OFFSET -5.23431 -0.00000 0.00000
							CHANNELS 3 Zrotation Yrotation Xrotation
							JOINT RightHand
							{
								OFFSET -3.55301 -0.00000 -0.00000
								CHANNELS 3 Zrotation Yrotation Xrotation
								JOINT RightFingerBase
								{
									OFFSET 0 0 0
									CHANNELS 3 Zrotation Yrotation Xrotation
									JOINT RightHandIndex1
									{
										OFFSET -0.77252 -0.00000 -0.00000
										CHANNELS 3 Zrotation Yrotation Xrotation
										End Site
										{
											OFFSET -0.62283 -0.00000 -0.00000
										}
									}
								}
								JOINT RThumb
								{
									OFFSET 0 0 0
									CHANNELS 3 Zrotation Yrotation Xrotation
									End Site
									{
										OFFSET -0.63234 -0.00000 0.63234
									}
								}
							}
						}
					}
				}
			}
		}
	}
}
MOTION
Frames: 14
Frame Time: .0083333
-0.0581 18.1633 1.6847 0 0 0 0 0 0 -21 0 0 0 0 0 0 0 0 0 0 0 0 0 0 21 0 0 0 0 0 0 0 0 0 0 0 0 0 0 0 0 0 0 0 0 0 0 -16 0 0 21 0 0 11 0 0 0 -8 0 0 0 0 0 0 0 0 0 0 0 0 0 0 0 0 0 0 0 0 8 0 0 0 0 0 0 0 0 0 0 0 0 0 0 0 0 0
-0.0581 18.1633 1.6847 0.9838 -2.0852 3.5362 0.0000 0.0000 0.0000 -23.2344 -0.1806 -0.1258 0.2213 3.0285 8.3580 0.1512 -1.3375 -6.9970 0.1666 -2.6299 -7.2501 0.0000 0.0000 0.0000 22.1379 5.4170 -5.5843 -1.3858 -7.4485 21.0509 -0.5984 3.1107 -13.8838 -0.0012 -0.2251 0.6184 -2.0883 -0.7512 5.8144 0.5322 -1.1379 -1.5227 1.8362 -0.4947 -4.7897 -16.2319 -11.1460 -17.7633 13.6365 -14.5561 20.6678 5.2501 -6.4244 12.0011 0.0000 0.0000 0.0000 -89.0858 7.1109 17.5610 19.4306 -29.9503 -5.2441 -0.0000 -0.0000 4.7211 19.6114 22.8772 7.8863 -7.1250 0.0000 -0.0000 -9.9102 53.8368 -2.1695 0.0000 0.0000 0.0000 90.3674 -2.8721 14.2508 -16.1348 25.7031 -3.7042 0.0000 0.0000 6.9371 -14.5405 9.9586 -2.5683 7.1250 -0.0000 -0.0000 8.8560 -19.7597 5.4049
-0.0608 18.1648 1.6795 0.9203 -2.1075 3.6108 0.0000 0.0000 0.0000 -23.1539 -0.2096 -0.2688 0.2249 3.0527 8.4254 0.1533 -1.3728 -7.0412 0.1769 -2.7092 -7.4701 0.0000 0.0000 0.0000 22.2190 5.5088 -5.6448 -1.3823 -7.4395 21.0240 -0.5970 3.0730 -13.8719 -0.0019 -0.2842 0.7808 -2.0322 -0.7496 5.8229 0.5427 -1.1314 -1.5537 1.8154 -0.4922 -4.8280 -16.1795 -11.1550 -17.7642 13.6175 -14.5787 20.6637 5.2296 -6.4325 11.9973 -0.0000 0.0000 0.0000 -89.0485 7.1307 17.6685 19.4995 -30.0346 -5.2785 -0.0000 -0.0000 4.6402 19.5327 23.0051 7.8935 -7.1250 0.0000 -0.0000 -10.0419 53.9521 -2.2271 -0.0000 0.0000 0.0000 90.4157 -2.8532 14.1970 -16.1431 25.7143 -3.7078 0.0000 0.0000 7.0397 -14.6034 9.9549 -2.5789 7.1250 -0.0000 -0.0000 8.8114 -19.7600 5.3770
-0.0624 18.1648 1.6764 0.9220 -2.1165 3.6252 0.0000 0.0000 0.0000 -23.1503 -0.1843 -0.2253 0.2174 3.0018 8.2837 0.1492 -1.3417 -6.9479 0.1721 -2.6728 -7.3690 0.0000 0.0000 0.0000 22.2245 5.5644 -5.6763 -1.3874 -7.4525 21.0632 -0.5977 3.0271 -13.8854 -0.0026 -0.3273 0.8992 -2.0261 -0.7616 5.8706 0.5353 -1.1485 -1.5708 1.8071 -0.5002 -4.8723 -16.1265 -11.1482 -17.7921 13.6018 -14.5723 20.6387 5.2149 -6.4261 11.9858 -0.0000 -0.0000 0.0000 -89.0340 7.1775 17.7811 19.5880 -30.1428 -5.3229 -0.0000 -0.0000 4.4278 19.3573 23.3778 7.9359 -7.1250 0.0000 -0.0000 -10.3748 54.2969 -2.3898 -0.0000 -0.0000 0.0000 90.4618 -2.8990 14.2371 -16.2008 25.7922 -3.7329 0.0000 0.0000 7.0344 -14.6706 9.9426 -2.5881 7.1250 -0.0000 -0.0000 8.7641 -19.7688 5.3457
-0.0638 18.1646 1.6766 1.0105 -2.1278 3.5964 0.0000 0.0000 0.0000 -23.2449 -0.1555 -0.1680 0.2148 2.9835 8.2329 0.1471 -1.3262 -6.9005 0.1705 -2.6601 -7.3339 0.0000 0.0000 0.0000 22.1236 5.4995 -5.6772 -1.3893 -7.4575 21.0780 -0.5985 3.0786 -13.8881 -0.0020 -0.2895 0.7955 -2.1103 -0.7845 5.9020 0.5210 -1.1867 -1.5553 1.8438 -0.5170 -4.8710 -16.1035 -11.1416 -17.9340 13.5644 -14.5461 20.7153 5.1991 -6.4095 12.0325 -0.0000 0.0000 0.0000 -89.0283 7.1511 17.8515 19.6020 -30.1598 -5.3299 -0.0000 -0.0000 4.2579 19.3698 23.5300 7.9895 -7.1250 0.0000 -0.0000 -10.4263 54.4535 -2.4419 -0.0000 0.0000 0.0000 90.4303 -2.9225 14.3986 -16.2498 25.8582 -3.7543 0.0000 0.0000 6.9561 -14.5608 9.9654 -2.5737 7.1250 -0.0000 -0.0000 8.8414 -19.7517 5.3974
-0.0660 18.1646 1.6761 1.0724 -2.1222 3.5825 0.0000 0.0000 0.0000 -23.3071 -0.1509 -0.1304 0.2124 2.9674 8.1879 0.1467 -1.3243 -6.8895 0.1762 -2.7042 -7.4562 0.0000 0.0000 0.0000 22.0586 5.4617 -5.6762 -1.3909 -7.4615 21.0899 -0.5995 3.1032 -13.8971 -0.0012 -0.2203 0.6053 -2.1933 -0.8116 5.8851 0.5266 -1.2284 -1.5146 1.8994 -0.5363 -4.8153 -16.0431 -11.1356 -18.1060 13.4847 -14.5140 20.7856 5.1610 -6.3904 12.0743 -0.0000 -0.0000 0.0000 -89.0573 7.0814 17.7854 19.6163 -30.1773 -5.3371 -0.0000 -0.0000 4.3306 19.3674 23.4815 7.9731 -7.1250 0.0000 -0.0000 -10.4081 54.4038 -2.4249 -0.0000 -0.0000 0.0000 90.3775 -2.8669 14.5689 -16.2593 25.8709 -3.7584 0.0000 0.0000 6.8842 -14.5230 9.9955 -2.5744 7.1250 -0.0000 -0.0000 8.8675 -19.7231 5.4194
-0.0699 18.1648 1.6723 1.0494 -2.1026 3.6197 0.0000 0.0000 0.0000 -23.2667 -0.1865 -0.1697 0.2119 2.9639 8.1783 0.1467 -1.3469 -6.8868 0.1819 -2.7470 -7.5751 0.0000 0.0000 0.0000 22.1003 5.5044 -5.7111 -1.3904 -7.4603 21.0865 -0.6004 3.0568 -13.9142 -0.0009 -0.1900 0.5219 -2.1969 -0.8276 5.8594 0.5622 -1.2476 -1.5062 1.9396 -0.5456 -4.7902 -16.0738 -11.1167 -18.1987 13.5198 -14.4790 20.8372 5.1850 -6.3688 12.1123 -0.0000 0.0000 0.0000 -89.0640 7.0392 17.8545 19.6352 -30.2004 -5.3466 -0.0000 -0.0000 4.2597 19.5324 23.4877 8.0476 -7.1250 0.0000 -0.0000 -10.2421 54.4419 -2.3951 -0.0000 0.0000 0.0000 90.3241 -2.8212 14.5835 -16.2582 25.8695 -3.7579 0.0000 0.0000 7.0078 -14.5876 9.7306 -2.5186 7.1250 -0.0000 -0.0000 8.8283 -19.9894 5.3417
-0.0739 18.1660 1.6679 0.9888 -2.0757 3.6396 0.0000 0.0000 0.0000 -23.1822 -0.2347 -0.2312 0.2149 2.9841 8.2345 0.1478 -1.3785 -6.9076 0.1860 -2.7778 -7.6608 0.0000 0.0000 0.0000 22.1954 5.5633 -5.7263 -1.3876 -7.4532 21.0651 -0.5984 2.9595 -13.9025 -0.0006 -0.1545 0.4244 -2.1502 -0.8401 5.9208 0.5963 -1.2610 -1.5561 1.9521 -0.5513 -4.8766 -16.1194 -11.1090 -18.1546 13.5470 -14.4771 20.8921 5.2062 -6.3703 12.1312 -0.0000 -0.0000 0.0000 -89.0634 7.0737 17.8446 19.6239 -30.1866 -5.3410 -0.0000 -0.0000 4.4721 19.8903 22.8570 7.9997 -7.1250 0.0000 -0.0000 -9.6187 53.8689 -2.1123 -0.0000 -0.0000 0.0000 90.3256 -2.9240 14.4418 -16.2940 25.9176 -3.7735 0.0000 0.0000 7.3709 -14.7099 9.0759 -2.3714 7.1250 -0.0000 -0.0000 8.7593 -20.6504 5.1672
-0.0770 18.1654 1.6665 0.9179 -2.0606 3.6281 0.0000 0.0000 0.0000 -23.0947 -0.2568 -0.2626 0.2202 3.0209 8.3369 0.1506 -1.3910 -6.9742 0.1846 -2.7673 -7.6315 0.0000 0.0000 0.0000 22.2897 5.5648 -5.7010 -1.3826 -7.4402 21.0261 -0.5946 2.9260 -13.8622 -0.0007 -0.1689 0.4640 -2.0854 -0.8543 5.9246 0.6283 -1.2733 -1.5425 1.9499 -0.5592 -4.8646 -16.1533 -11.1287 -18.0925 13.5935 -14.5101 20.8259 5.2231 -6.3860 12.1068 -0.0000 0.0000 0.0000 -89.0798 7.0615 17.6961 19.6536 -30.2228 -5.3559 -0.0000 -0.0000 4.9445 20.2242 21.6436 7.7380 -7.1250 0.0000 -0.0000 -8.8208 52.6891 -1.6796 -0.0000 0.0000 0.0000 90.3367 -2.9365 14.4399 -16.3018 25.9282 -3.7770 0.0000 0.0000 7.3984 -14.8044 8.9805 -2.3624 7.1250 -0.0000 -0.0000 8.6944 -20.7430 5.1097
-0.0794 18.1647 1.6651 0.8931 -2.0376 3.6094 0.0000 0.0000 0.0000 -23.0580 -0.2795 -0.2650 0.2223 3.0352 8.3767 0.1516 -1.4306 -6.9914 0.1856 -2.7751 -7.6531 0.0000 0.0000 0.0000 22.3237 5.4805 -5.6910 -1.3791 -7.4311 20.9989 -0.5927 2.9709 -13.8331 -0.0003 -0.1105 0.3037 -2.0656 -0.8783 5.9420 0.6552 -1.3027 -1.5194 1.9697 -0.5744 -4.8487 -16.1544 -11.1472 -18.1344 13.5756 -14.5220 20.8078 5.2119 -6.3914 12.1085 -0.0000 -0.0000 0.0000 -89.1183 7.0609 17.6159 19.6901 -30.2671 -5.3743 -0.0000 -0.0000 5.1243 20.5216 20.9855 7.6352 -7.1250 0.0000 -0.0000 -8.2923 52.0651 -1.4506 -0.0000 -0.0000 0.0000 90.3229 -2.8812 14.4749 -16.2460 25.8531 -3.7526 0.0000 0.0000 7.3162 -14.8189 9.1540 -2.4101 7.1250 -0.0000 -0.0000 8.6790 -20.5653 5.1356
-0.0817 18.1647 1.6634 0.8906 -2.0230 3.6128 0.0000 0.0000 0.0000 -23.0516 -0.2959 -0.2678 0.2212 3.0276 8.3556 0.1512 -1.4768 -6.9763 0.1799 -2.7317 -7.5326 0.0000 0.0000 0.0000 22.3361 5.5081 -5.6705 -1.3784 -7.4293 20.9935 -0.5935 2.9205 -13.8498 -0.0002 -0.0977 0.2686 -2.0638 -0.8861 5.9459 0.6746 -1.3120 -1.5028 1.9896 -0.5791 -4.8327 -16.2070 -11.1626 -18.1908 13.6098 -14.5268 20.7919 5.2301 -6.3913 12.1221 0.0000 0.0000 0.0000 -89.1532 7.0452 17.6714 19.7175 -30.3005 -5.3881 -0.0000 -0.0000 5.0003 20.7969 20.9337 7.7278 -7.1250 0.0000 -0.0000 -8.0002 52.0601 -1.3980 0.0000 0.0000 0.0000 90.3002 -2.8019 14.3440 -16.1646 25.7433 -3.7172 0.0000 0.0000 7.5173 -14.7792 9.0123 -2.3665 7.1250 -0.0000 -0.0000 8.7115 -20.7118 5.1262
-0.0829 18.1657 1.6647 0.9049 -2.0128 3.6146 0.0000 0.0000 0.0000 -23.0727 -0.2899 -0.2196 0.2176 3.0027 8.2863 0.1511 -1.5153 -6.9673 0.1722 -2.6735 -7.3712 0.0000 0.0000 0.0000 22.3188 5.4519 -5.7056 -1.3797 -7.4326 21.0035 -0.5943 2.9775 -13.8517 -0.0000 -0.0324 0.0890 -2.0517 -0.8836 5.8881 0.6698 -1.3064 -1.4606 1.9754 -0.5782 -4.7565 -16.2288 -11.1629 -18.1720 13.6712 -14.5319 20.7241 5.2554 -6.3899 12.1012 0.0000 0.0000 0.0000 -89.1245 7.0074 17.8067 19.7487 -30.3384 -5.4038 -0.0000 -0.0000 4.9369 20.8143 21.0302 7.7684 -7.1250 0.0000 -0.0000 -8.0154 52.1630 -1.4209 0.0000 0.0000 0.0000 90.3172 -2.7161 14.1749 -16.1097 25.6692 -3.6934 0.0000 0.0000 7.7203 -14.7760 8.9504 -2.3499 7.1250 -0.0000 -0.0000 8.7156 -20.7752 5.1160
-0.0841 18.1651 1.6643 0.9242 -1.9819 3.6357 0.0000 0.0000 0.0000 -23.0980 -0.3077 -0.1730 0.2117 2.9625 8.1743 0.1482 -1.4524 -6.9081 0.1834 -2.7586 -7.6073 0.0000 0.0000 0.0000 22.2952 5.4198 -5.7619 -1.3821 -7.4388 21.0221 -0.5963 3.0030 -13.8717 -0.0000 -0.0448 0.1231 -2.0470 -0.8892 5.8598 0.6719 -1.3128 -1.4390 1.9746 -0.5822 -4.7177 -16.2431 -11.1587 -18.1565 13.7345 -14.5353 20.6736 5.2809 -6.3868 12.0869 -0.0000 0.0000 0.0000 -89.1120 6.9896 17.9050 19.7890 -30.3873 -5.4242 -0.0000 -0.0000 4.9863 20.6459 21.2537 7.7777 -7.1250 0.0000 -0.0000 -8.2602 52.3637 -1.5056 -0.0000 0.0000 0.0000 90.3114 -2.6829 14.2625 -16.1131 25.6738 -3.6948 0.0000 0.0000 7.4861 -14.8675 9.1384 -2.4143 7.1250 -0.0000 -0.0000 8.6448 -20.5788 5.1122
-0.0860 18.1671 1.6622 0.9945 -1.9355 3.6782 0.0000 0.0000 0.0000 -23.1733 -0.3511 -0.1385 0.2046 2.9126 8.0356 0.1437 -1.4165 -6.8029 0.1875 -2.7892 -7.6923 0.0000 0.0000 0.0000 22.2144 5.3924 -5.8443 -1.3854 -7.4474 21.0477 -0.5988 3.0369 -13.8981 -0.0001 -0.0603 0.1656 -2.0949 -0.8800 5.8477 0.6563 -1.3046 -1.4398 1.9842 -0.5771 -4.7114 -16.2263 -11.1792 -18.1120 13.7558 -14.5692 20.5713 5.2783 -6.4010 12.0455 0.0000 0.0000 0.0000 -89.0797 6.9559 18.0232 19.7912 -30.3900 -5.4253 -0.0000 -0.0000 4.9752 20.5951 21.3101 7.7764 -7.1250 0.0000 -0.0000 -8.3307 52.4128 -1.5286 0.0000 0.0000 0.0000 90.3084 -2.7099 14.3160 -16.1378 25.7071 -3.7055 0.0000 0.0000 7.3134 -14.9418 9.3181 -2.4742 7.1250 -0.0000 -0.0000 8.5868 -20.3916 5.1137
